<svg version="1.1" id="Layer_1" xmlns="http://www.w3.org/2000/svg" xmlns:xlink="http://www.w3.org/1999/xlink" x="0px" y="0px"
	 width="100%" viewBox="0 0 496 496" enable-background="new 0 0 496 496" xml:space="preserve">
<path fill="#000000" opacity="1.000000" stroke="none" 
	d="
M53.660793,224.999802 
	C53.358551,215.201889 54.249714,205.894226 52.783501,196.593414 
	C51.868027,190.786133 55.037106,187.384995 60.638824,187.915054 
	C65.480316,188.373169 69.879250,187.195526 74.271545,185.691986 
	C96.304237,178.149902 118.288536,170.465302 140.357101,163.030426 
	C143.492233,161.974197 148.133972,158.983505 148.598145,166.125427 
	C148.653671,166.979767 149.608932,167.241928 150.460358,167.507233 
	C157.069580,169.566818 162.729492,173.091064 167.093246,178.550964 
	C167.195206,178.678543 167.328217,178.821899 167.474823,178.867416 
	C175.733444,181.430893 173.282272,187.836060 172.747406,193.551926 
	C172.623566,194.875443 172.406387,196.195923 172.372757,197.521362 
	C171.409805,235.471191 171.133957,273.427979 171.284500,311.388428 
	C171.314331,318.911499 170.946655,319.107849 163.411163,320.622833 
	C140.595428,325.209839 117.831673,330.055176 95.018074,334.653046 
	C89.159866,335.833679 83.202110,336.546478 77.269707,337.317352 
	C75.428001,337.556702 73.693336,337.874817 72.012779,338.697357 
	C64.168968,342.536621 53.860546,336.181915 53.837070,327.423584 
	C53.746025,293.449066 53.714386,259.474426 53.660793,224.999802 
M75.771194,188.943420 
	C83.468925,187.530869 90.524544,184.466980 97.330811,180.731232 
	C94.864830,181.055756 92.369492,181.460007 90.262909,182.589386 
	C85.366982,185.214203 79.174530,184.713974 74.207260,189.002686 
	C70.735718,188.941086 67.564407,190.033066 63.608559,191.484406 
	C68.793839,193.971680 71.548576,190.054337 75.771194,188.943420 
M78.974503,334.382477 
	C107.334305,328.847778 135.684967,323.265198 164.066467,317.844086 
	C167.302612,317.225983 168.663239,315.885193 168.628799,312.601837 
	C168.206436,272.321289 170.225876,232.080139 170.617752,191.812393 
	C170.694656,183.910233 169.849976,183.119751 161.919022,184.587387 
	C133.500305,189.846344 105.239700,196.022903 76.473564,199.231140 
	C73.248543,199.590820 72.240891,201.119904 72.322784,204.132477 
	C72.512337,211.105835 72.510300,218.079468 72.466141,225.060242 
	C72.247070,259.696960 72.412170,294.335968 72.257896,328.973389 
	C72.237915,333.459167 73.280518,335.722961 78.974503,334.382477 
M56.351948,275.499908 
	C56.358677,292.142181 56.384087,308.784485 56.346348,325.426666 
	C56.342068,327.313721 56.539169,329.192749 57.466537,330.738068 
	C59.595936,334.286377 62.934486,337.688904 66.845421,337.034454 
	C70.363602,336.445709 68.614532,331.902313 68.662621,329.156982 
	C69.103172,304.009308 68.546486,278.856171 69.454048,253.703781 
	C70.000420,238.561417 69.602600,223.384995 69.629265,208.223877 
	C69.632591,206.332779 69.622078,204.237701 67.194611,203.984161 
	C63.396469,203.587463 60.148338,201.699631 56.351086,199.921951 
	C56.351086,225.201859 56.351086,249.850861 56.351948,275.499908 
M128.973495,182.428848 
	C127.295807,182.925537 125.618126,183.422211 123.940445,183.918900 
	C124.038467,184.193863 124.136490,184.468811 124.234512,184.743759 
	C135.789795,182.339462 147.345078,179.935165 158.900360,177.530869 
	C158.762665,176.861176 158.624969,176.191498 158.487259,175.521820 
	C148.904800,177.776031 139.322342,180.030228 128.973495,182.428848 
M118.620392,178.633224 
	C122.938553,177.138016 127.256706,175.642792 131.574860,174.147583 
	C131.451080,173.807999 131.327286,173.468414 131.203506,173.128845 
	C125.614555,175.179306 120.025620,177.229767 114.436676,179.280243 
	C114.510963,179.488953 114.585243,179.697678 114.659531,179.906403 
	C115.753136,179.538239 116.846741,179.170090 118.620392,178.633224 
z"/>
<path fill="#000000" opacity="1.000000" stroke="none" 
	d="
M258.795868,201.336807 
	C270.480835,199.193039 277.874023,203.496292 280.585999,213.643860 
	C283.347412,223.976456 278.060608,234.451630 268.538330,237.991943 
	C263.434235,239.889618 258.509644,240.313324 253.611404,237.634018 
	C250.666519,236.023178 247.792297,235.254578 245.169342,237.984268 
	C243.089523,236.414520 243.726364,234.442520 243.720459,232.713943 
	C243.676590,219.891891 243.677383,207.069519 243.723770,194.247452 
	C243.737640,190.416061 243.953827,186.582748 241.116898,183.365067 
	C243.561752,180.182114 247.883835,180.316986 250.561386,177.175919 
	C227.424805,175.212601 204.515961,176.989243 181.767944,175.132706 
	C184.985992,172.085709 365.139191,171.675797 371.411987,174.080917 
	C369.470459,176.671951 366.780945,176.107956 364.318207,176.111588 
	C331.880035,176.159531 299.441772,176.158524 267.003693,176.233185 
	C252.347443,176.266922 252.347397,176.330688 252.341080,191.050598 
	C252.340225,193.048874 252.318024,195.047516 252.348373,197.045334 
	C252.435593,202.787857 252.947540,203.156265 258.795868,201.336807 
M262.480896,204.964020 
	C255.184021,203.787430 252.406647,205.994095 252.349716,213.061539 
	C252.321564,216.556458 252.169159,220.065140 252.412109,223.543915 
	C252.754868,228.451508 254.838272,232.489502 259.276154,235.012833 
	C264.360596,237.903809 269.715546,236.079163 271.797516,230.528442 
	C274.351227,223.720062 272.216888,208.565475 262.480896,204.964020 
z"/>
<path fill="#000000" opacity="1.000000" stroke="none" 
	d="
M261.274078,274.548889 
	C259.732941,280.758331 255.527039,283.668396 250.031265,284.087402 
	C243.044556,284.620087 238.522980,280.756683 236.509018,273.840302 
	C224.982834,287.550140 219.519257,287.766296 209.570770,275.117340 
	C203.798477,286.173431 193.863235,283.188568 184.490646,283.095398 
	C185.227951,272.655884 185.117371,262.713348 184.565002,252.194412 
	C190.339233,251.421707 196.175400,250.769257 201.880920,252.992538 
	C204.725601,254.101059 206.325058,256.874420 205.033203,259.467255 
	C202.254807,265.043701 206.377167,266.656097 209.459015,269.218750 
	C217.237762,256.946289 229.327728,257.453796 236.240921,268.906952 
	C240.981079,261.167633 247.466980,257.923523 255.964813,261.795593 
	C261.241211,264.199799 261.727203,269.057556 261.274078,274.548889 
M228.522232,270.033569 
	C228.269562,269.419830 228.050018,268.789825 227.758698,268.195007 
	C226.164322,264.939606 224.176056,261.465668 220.008942,262.747406 
	C215.540726,264.121826 216.267624,268.420959 216.474121,272.075684 
	C216.501465,272.559723 216.723083,273.034332 216.865494,273.510101 
	C218.361359,278.508362 222.129410,282.068268 225.201035,281.388184 
	C228.544708,280.647858 229.879318,276.582306 228.522232,270.033569 
M243.059509,267.380463 
	C242.616043,271.637482 243.307037,275.671051 246.196075,278.931122 
	C247.694702,280.622223 249.630615,282.264740 252.267380,281.138733 
	C254.669632,280.112854 255.490631,278.057587 255.681793,275.566895 
	C255.963165,271.901154 254.683578,268.734161 252.693359,265.821564 
	C249.395416,260.995178 246.135941,261.315308 243.059509,267.380463 
M199.999664,268.434631 
	C197.576187,266.323914 194.886490,265.211182 191.975342,267.229034 
	C190.656509,268.143188 191.017578,279.572418 192.144104,280.727661 
	C193.208298,281.818970 194.579514,281.672760 195.873108,281.487091 
	C201.730728,280.646271 203.768921,275.114441 199.999664,268.434631 
M194.022385,253.869293 
	C189.046234,254.647141 191.963882,258.481995 191.438461,260.899780 
	C191.077454,262.561005 192.338516,263.669464 194.178421,263.548981 
	C196.359375,263.406158 198.046463,262.407684 198.485901,260.157776 
	C199.093872,257.045044 197.531845,255.131989 194.022385,253.869293 
z"/>
<path fill="#000000" opacity="1.000000" stroke="none" 
	d="
M196.918335,204.012817 
	C196.843704,212.830444 196.862579,221.153168 196.657501,229.470352 
	C196.552826,233.716446 197.883514,235.988098 202.586914,236.021210 
	C210.270218,236.075287 210.268936,236.257080 220.299347,228.929123 
	C222.794342,235.879486 221.555832,238.384888 214.820831,238.684479 
	C205.101166,239.116837 195.370621,238.913055 186.574005,238.333755 
	C188.296371,220.766495 188.332855,203.926498 186.539978,186.415176 
	C190.013779,185.155853 194.280731,186.021896 199.363739,186.337646 
	C196.273834,192.295837 196.987366,197.944153 196.918335,204.012817 
z"/>
<path fill="#000000" opacity="1.000000" stroke="none" 
	d="
M265.094025,272.781097 
	C265.263702,265.251678 266.375641,258.232910 264.716553,251.035187 
	C263.929016,247.618423 267.936493,247.894913 270.764587,247.470520 
	C272.170013,254.699081 270.482330,261.884491 271.847839,269.277954 
	C275.160828,268.169342 277.265656,265.942749 278.358521,263.324097 
	C279.860626,259.724792 282.083374,260.488190 284.970764,261.115417 
	C283.649689,264.653107 277.708771,264.724487 278.996216,269.060486 
	C280.236847,273.238831 282.360199,277.255249 285.879211,279.974640 
	C288.153503,279.031921 286.979401,276.614563 288.730286,275.522247 
	C290.298798,277.147278 291.731750,278.999908 293.522430,280.392578 
	C295.688385,282.077118 298.446411,282.613464 300.066406,279.928406 
	C301.883301,276.917023 299.040009,275.953339 296.938934,274.977600 
	C294.979492,274.067627 292.845856,273.470764 291.011353,272.366486 
	C286.873444,269.875671 286.610352,264.744995 290.573883,262.053497 
	C294.238831,259.564728 298.462708,259.281647 302.495209,260.953400 
	C305.313446,262.121796 304.337952,264.630127 303.759613,267.310272 
	C301.795929,265.645020 300.336761,264.051636 298.557861,262.998322 
	C296.746307,261.925659 294.418518,261.795715 293.223297,263.855408 
	C291.734772,266.420593 294.181244,267.366760 295.875916,268.230743 
	C297.490875,269.054077 299.354828,269.375488 301.016174,270.124237 
	C303.805267,271.381195 305.565460,273.422394 305.435455,276.709229 
	C305.299805,280.138062 303.391876,282.192902 300.362000,283.415741 
	C298.793335,284.048828 297.177734,284.377594 295.480743,284.157928 
	C294.820709,284.072510 294.121002,284.080963 293.511230,283.853790 
	C289.474915,282.349945 285.133850,284.333801 281.172852,282.877960 
	C276.981079,281.337311 276.778595,276.031036 273.157532,273.512451 
	C269.796021,276.491058 272.232513,279.799377 272.409515,283.014862 
	C269.614471,283.621460 267.066925,283.700775 264.330841,282.667084 
	C265.227783,279.476654 265.599426,276.369659 265.094025,272.781097 
z"/>
<path fill="#000000" opacity="1.000000" stroke="none" 
	d="
M336.973145,239.297546 
	C328.128418,238.738068 321.603027,235.233490 319.360687,226.670853 
	C317.250153,218.611588 318.601440,211.105026 325.307068,205.304749 
	C331.156250,200.245285 339.617676,199.076385 346.317749,202.380997 
	C351.044922,204.712540 352.997986,207.747498 353.456940,214.149200 
	C346.894745,214.399643 340.332611,214.749725 333.766205,214.874496 
	C326.190308,215.018448 324.412140,218.087128 328.159149,224.859329 
	C332.036621,231.867310 341.461212,234.161179 348.588623,229.867310 
	C350.118347,228.945709 351.287079,227.320984 353.326080,227.315231 
	C353.104340,232.937546 346.258881,238.073227 336.973145,239.297546 
M343.299927,212.443054 
	C344.692169,211.785995 344.622528,210.685669 344.137146,209.515198 
	C342.477509,205.513138 339.857239,202.842911 335.139526,203.210724 
	C330.698883,203.556931 328.190430,206.345932 327.260956,212.579208 
	C332.410980,212.579208 337.472015,212.579208 343.299927,212.443054 
z"/>
<path fill="#000000" opacity="1.000000" stroke="none" 
	d="
M287.914825,219.043915 
	C287.701569,214.137634 288.934021,209.482193 285.552002,205.789520 
	C290.702545,200.283127 294.882324,199.732605 298.365326,204.165161 
	C302.464264,202.998352 306.182770,199.939789 310.929962,200.620819 
	C312.771454,200.885010 314.822784,200.710968 315.251923,203.062622 
	C315.723114,205.644669 314.067017,207.169968 311.895416,207.934830 
	C309.653625,208.724411 307.240387,208.661682 305.045380,207.728439 
	C300.776245,205.913330 298.204163,208.148285 297.720642,211.765106 
	C296.582855,220.275604 295.820496,228.904327 299.055969,237.816254 
	C294.754852,239.197464 290.413757,239.415192 285.540771,237.881149 
	C289.066193,231.835602 287.578003,225.588379 287.914825,219.043915 
z"/>
<path fill="#000000" opacity="1.000000" stroke="none" 
	d="
M277.660858,295.547729 
	C307.948822,295.518982 337.904053,295.518982 368.225830,295.518982 
	C367.233490,299.484650 364.454956,298.137512 362.811005,298.148529 
	C341.224121,298.293518 319.635895,298.232513 298.048004,298.225769 
	C263.512604,298.214996 228.977188,298.198730 194.441788,298.207886 
	C190.941223,298.208801 187.419586,298.166321 183.948227,298.530243 
	C181.928223,298.742004 181.561401,298.114471 181.952515,295.576477 
	C213.680252,295.576477 245.504181,295.576477 277.660858,295.547729 
z"/>
<path fill="#000000" opacity="1.000000" stroke="none" 
	d="
M228.391388,199.033447 
	C227.458054,198.091660 226.620499,197.490784 226.046707,196.698807 
	C224.430023,194.467453 224.019577,192.031250 225.969254,189.851013 
	C227.734177,187.877319 230.099655,186.784393 232.671753,188.139496 
	C235.118225,189.428406 235.806168,191.778915 235.616211,194.501968 
	C234.732574,207.170303 235.362610,219.853058 235.446655,232.527924 
	C235.457764,234.201385 236.661179,235.866928 237.436768,237.854935 
	C233.032043,239.184387 228.734848,238.809036 224.376694,237.937943 
	C227.537109,226.809387 228.086624,216.004868 224.136627,205.025131 
	C224.696228,202.585144 230.058304,203.523773 228.391388,199.033447 
z"/>
</svg>